<svg width="43" height="43" viewBox="0 0 43 43" fill="none" xmlns="http://www.w3.org/2000/svg">
<path d="M6.45 16.125H36.55M6.45 26.875H36.55M5.375 21.5C5.375 23.6176 5.79209 25.7144 6.60244 27.6708C7.4128 29.6271 8.60056 31.4048 10.0979 32.9021C11.5952 34.3994 13.3729 35.5872 15.3292 36.3976C17.2856 37.2079 19.3824 37.625 21.5 37.625C23.6176 37.625 25.7144 37.2079 27.6708 36.3976C29.6271 35.5872 31.4048 34.3994 32.9021 32.9021C34.3994 31.4048 35.5872 29.6271 36.3976 27.6708C37.2079 25.7144 37.625 23.6176 37.625 21.5C37.625 17.2234 35.9261 13.1219 32.9021 10.0979C29.8781 7.07388 25.7766 5.375 21.5 5.375C17.2234 5.375 13.1219 7.07388 10.0979 10.0979C7.07388 13.1219 5.375 17.2234 5.375 21.5Z" stroke="#006BB6" stroke-width="2" stroke-linecap="round" stroke-linejoin="round"/>
<path d="M20.6041 5.375C17.5858 10.2118 15.9856 15.7987 15.9856 21.5C15.9856 27.2013 17.5858 32.7882 20.6041 37.625M22.3958 5.375C25.4142 10.2118 27.0144 15.7987 27.0144 21.5C27.0144 27.2013 25.4142 32.7882 22.3958 37.625" stroke="#006BB6" stroke-width="2" stroke-linecap="round" stroke-linejoin="round"/>
</svg>
